<?xml version="1.0" encoding="UTF-8" standalone="no"?>
<!DOCTYPE svg PUBLIC "-//W3C//DTD SVG 1.1//EN"
 "http://www.w3.org/Graphics/SVG/1.1/DTD/svg11.dtd">
<!-- Generated by graphviz version 13.1.2 (20250808.2320)
 -->
<!-- Title: G Pages: 1 -->
<svg width="1240pt" height="493pt"
 viewBox="0.00 0.00 1240.00 493.00" xmlns="http://www.w3.org/2000/svg" xmlns:xlink="http://www.w3.org/1999/xlink">
<g id="graph0" class="graph" transform="scale(1 1) rotate(0) translate(4 489)">
<title>G</title><style>.edge>path:hover{stroke-width:8}</style>
<polygon fill="white" stroke="none" points="-4,4 -4,-489 1236.22,-489 1236.22,4 -4,4"/>
<g id="clust1" class="cluster">
<title>cluster_app</title><style>.edge>path:hover{stroke-width:8}</style>
<polygon fill="none" stroke="black" points="8,-8 8,-477 1224.22,-477 1224.22,-8 8,-8"/>
<text xml:space="preserve" text-anchor="middle" x="616.11" y="-459.7" font-family="Times,serif" font-size="14.00">app</text>
</g>
<!-- app_api -->
<g id="node1" class="node">
<title>app_api</title><style>.edge>path:hover{stroke-width:8}</style>
<ellipse fill="#c24747" stroke="black" cx="1099.22" cy="-346" rx="27" ry="18"/>
<text xml:space="preserve" text-anchor="middle" x="1099.22" y="-342.12" font-family="Helvetica,sans-Serif" font-size="10.00" fill="#ffffff">api</text>
</g>
<!-- app_main -->
<g id="node20" class="node">
<title>app_main</title><style>.edge>path:hover{stroke-width:8}</style>
<ellipse fill="#854747" stroke="black" cx="1189.22" cy="-403" rx="27" ry="18"/>
<text xml:space="preserve" text-anchor="middle" x="1189.22" y="-399.12" font-family="Helvetica,sans-Serif" font-size="10.00" fill="#ffffff">main</text>
</g>
<!-- app_api&#45;&gt;app_main -->
<g id="edge1" class="edge">
<title>app_api&#45;&gt;app_main</title><style>.edge>path:hover{stroke-width:8}</style>
<path fill="none" stroke="black" d="M1119.31,-358.37C1131.07,-365.99 1146.38,-375.9 1159.57,-384.45"/>
<polygon fill="#000000" stroke="black" points="1157.59,-387.33 1167.89,-389.83 1161.4,-381.46 1157.59,-387.33"/>
</g>
<!-- app_api_routes -->
<g id="node2" class="node">
<title>app_api_routes</title><style>.edge>path:hover{stroke-width:8}</style>
<ellipse fill="#8a2e2e" stroke="black" cx="1001.45" cy="-200" rx="34.76" ry="18"/>
<text xml:space="preserve" text-anchor="middle" x="1001.45" y="-196.12" font-family="Helvetica,sans-Serif" font-size="10.00" fill="#ffffff">api.routes</text>
</g>
<!-- app_api_routes&#45;&gt;app_main -->
<g id="edge2" class="edge">
<title>app_api_routes&#45;&gt;app_main</title><style>.edge>path:hover{stroke-width:8}</style>
<path fill="none" stroke="black" d="M1004.44,-218.23C1009.28,-253.58 1024.99,-331.56 1072.22,-373 1093.81,-391.95 1125.87,-399.19 1150.82,-401.83"/>
<polygon fill="#000000" stroke="black" points="1150.3,-405.3 1160.56,-402.64 1150.88,-398.32 1150.3,-405.3"/>
</g>
<!-- app_api_routes_audit -->
<g id="node3" class="node">
<title>app_api_routes_audit</title><style>.edge>path:hover{stroke-width:8}</style>
<ellipse fill="#964040" stroke="black" cx="881.72" cy="-354" rx="32.53" ry="29.52"/>
<text xml:space="preserve" text-anchor="middle" x="881.72" y="-361.38" font-family="Helvetica,sans-Serif" font-size="10.00" fill="#ffffff">api.</text>
<text xml:space="preserve" text-anchor="middle" x="881.72" y="-350.12" font-family="Helvetica,sans-Serif" font-size="10.00" fill="#ffffff">routes.</text>
<text xml:space="preserve" text-anchor="middle" x="881.72" y="-338.88" font-family="Helvetica,sans-Serif" font-size="10.00" fill="#ffffff">audit</text>
</g>
<!-- app_api_routes_audit&#45;&gt;app_api_routes -->
<g id="edge3" class="edge">
<title>app_api_routes_audit&#45;&gt;app_api_routes</title><style>.edge>path:hover{stroke-width:8}</style>
<path fill="none" stroke="black" d="M908.12,-336.62C915.88,-330.62 924.1,-323.5 930.69,-316 954.48,-288.94 974.79,-252.69 987.27,-227.96"/>
<polygon fill="#000000" stroke="black" points="990.32,-229.68 991.6,-219.16 984.04,-226.58 990.32,-229.68"/>
</g>
<!-- app_api_routes_auth -->
<g id="node4" class="node">
<title>app_api_routes_auth</title><style>.edge>path:hover{stroke-width:8}</style>
<ellipse fill="#a44646" stroke="black" cx="881.72" cy="-277" rx="32.53" ry="29.52"/>
<text xml:space="preserve" text-anchor="middle" x="881.72" y="-284.38" font-family="Helvetica,sans-Serif" font-size="10.00" fill="#ffffff">api.</text>
<text xml:space="preserve" text-anchor="middle" x="881.72" y="-273.12" font-family="Helvetica,sans-Serif" font-size="10.00" fill="#ffffff">routes.</text>
<text xml:space="preserve" text-anchor="middle" x="881.72" y="-261.88" font-family="Helvetica,sans-Serif" font-size="10.00" fill="#ffffff">auth</text>
</g>
<!-- app_api_routes_auth&#45;&gt;app_api_routes -->
<g id="edge4" class="edge">
<title>app_api_routes_auth&#45;&gt;app_api_routes</title><style>.edge>path:hover{stroke-width:8}</style>
<path fill="none" stroke="black" d="M908.85,-259.91C926.77,-248.19 950.62,-232.6 969.49,-220.25"/>
<polygon fill="#000000" stroke="black" points="971.4,-223.19 977.85,-214.78 967.56,-217.33 971.4,-223.19"/>
</g>
<!-- app_api_routes_experiments -->
<g id="node5" class="node">
<title>app_api_routes_experiments</title><style>.edge>path:hover{stroke-width:8}</style>
<ellipse fill="#9d4343" stroke="black" cx="881.72" cy="-123" rx="48.97" ry="29.52"/>
<text xml:space="preserve" text-anchor="middle" x="881.72" y="-130.38" font-family="Helvetica,sans-Serif" font-size="10.00" fill="#ffffff">api.</text>
<text xml:space="preserve" text-anchor="middle" x="881.72" y="-119.12" font-family="Helvetica,sans-Serif" font-size="10.00" fill="#ffffff">routes.</text>
<text xml:space="preserve" text-anchor="middle" x="881.72" y="-107.88" font-family="Helvetica,sans-Serif" font-size="10.00" fill="#ffffff">experiments</text>
</g>
<!-- app_api_routes_experiments&#45;&gt;app_api_routes -->
<g id="edge5" class="edge">
<title>app_api_routes_experiments&#45;&gt;app_api_routes</title><style>.edge>path:hover{stroke-width:8}</style>
<path fill="none" stroke="black" d="M915.83,-144.65C932.77,-155.73 953.26,-169.13 969.83,-179.97"/>
<polygon fill="#000000" stroke="black" points="967.53,-182.65 977.82,-185.19 971.36,-176.79 967.53,-182.65"/>
</g>
<!-- app_api_routes_task -->
<g id="node6" class="node">
<title>app_api_routes_task</title><style>.edge>path:hover{stroke-width:8}</style>
<ellipse fill="#a44646" stroke="black" cx="881.72" cy="-200" rx="32.53" ry="29.52"/>
<text xml:space="preserve" text-anchor="middle" x="881.72" y="-207.38" font-family="Helvetica,sans-Serif" font-size="10.00" fill="#ffffff">api.</text>
<text xml:space="preserve" text-anchor="middle" x="881.72" y="-196.12" font-family="Helvetica,sans-Serif" font-size="10.00" fill="#ffffff">routes.</text>
<text xml:space="preserve" text-anchor="middle" x="881.72" y="-184.88" font-family="Helvetica,sans-Serif" font-size="10.00" fill="#ffffff">task</text>
</g>
<!-- app_api_routes_task&#45;&gt;app_api_routes -->
<g id="edge6" class="edge">
<title>app_api_routes_task&#45;&gt;app_api_routes</title><style>.edge>path:hover{stroke-width:8}</style>
<path fill="none" stroke="black" d="M914.58,-200C927.14,-200 941.79,-200 955.39,-200"/>
<polygon fill="#000000" stroke="black" points="954.99,-203.5 964.99,-200 954.99,-196.5 954.99,-203.5"/>
</g>
<!-- app_api_routes_train -->
<g id="node7" class="node">
<title>app_api_routes_train</title><style>.edge>path:hover{stroke-width:8}</style>
<ellipse fill="#964040" stroke="black" cx="881.72" cy="-46" rx="32.53" ry="29.52"/>
<text xml:space="preserve" text-anchor="middle" x="881.72" y="-53.38" font-family="Helvetica,sans-Serif" font-size="10.00" fill="#ffffff">api.</text>
<text xml:space="preserve" text-anchor="middle" x="881.72" y="-42.12" font-family="Helvetica,sans-Serif" font-size="10.00" fill="#ffffff">routes.</text>
<text xml:space="preserve" text-anchor="middle" x="881.72" y="-30.88" font-family="Helvetica,sans-Serif" font-size="10.00" fill="#ffffff">train</text>
</g>
<!-- app_api_routes_train&#45;&gt;app_api_routes -->
<g id="edge7" class="edge">
<title>app_api_routes_train&#45;&gt;app_api_routes</title><style>.edge>path:hover{stroke-width:8}</style>
<path fill="none" stroke="black" d="M908.12,-63.38C915.88,-69.38 924.1,-76.5 930.69,-84 954.48,-111.06 974.79,-147.31 987.27,-172.04"/>
<polygon fill="#000000" stroke="black" points="984.04,-173.42 991.6,-180.84 990.32,-170.32 984.04,-173.42"/>
</g>
<!-- app_auth -->
<g id="node8" class="node">
<title>app_auth</title><style>.edge>path:hover{stroke-width:8}</style>
<ellipse fill="#e72222" stroke="black" cx="679.12" cy="-177" rx="27" ry="18"/>
<text xml:space="preserve" text-anchor="middle" x="679.12" y="-173.12" font-family="Helvetica,sans-Serif" font-size="10.00" fill="#ffffff">auth</text>
</g>
<!-- app_auth&#45;&gt;app_api_routes_audit -->
<g id="edge8" class="edge">
<title>app_auth&#45;&gt;app_api_routes_audit</title><style>.edge>path:hover{stroke-width:8}</style>
<path fill="none" stroke="black" d="M695.4,-191.57C722.54,-217.28 781.14,-272.14 832.76,-316 837.51,-320.04 842.61,-324.23 847.65,-328.28"/>
<polygon fill="#000000" stroke="black" points="845.37,-330.94 855.37,-334.43 849.73,-325.47 845.37,-330.94"/>
</g>
<!-- app_auth&#45;&gt;app_api_routes_auth -->
<g id="edge9" class="edge">
<title>app_auth&#45;&gt;app_api_routes_auth</title><style>.edge>path:hover{stroke-width:8}</style>
<path fill="none" stroke="black" d="M701.21,-187.51C734.69,-204.2 800.49,-237 842.45,-257.92"/>
<polygon fill="#000000" stroke="black" points="840.7,-260.96 851.21,-262.29 843.82,-254.7 840.7,-260.96"/>
</g>
<!-- app_auth&#45;&gt;app_api_routes_experiments -->
<g id="edge10" class="edge">
<title>app_auth&#45;&gt;app_api_routes_experiments</title><style>.edge>path:hover{stroke-width:8}</style>
<path fill="none" stroke="black" d="M704.72,-170.38C734.59,-162.34 785.87,-148.53 825.4,-137.89"/>
<polygon fill="#000000" stroke="black" points="826.26,-141.29 835.01,-135.31 824.44,-134.53 826.26,-141.29"/>
</g>
<!-- app_auth&#45;&gt;app_api_routes_task -->
<g id="edge11" class="edge">
<title>app_auth&#45;&gt;app_api_routes_task</title><style>.edge>path:hover{stroke-width:8}</style>
<path fill="none" stroke="black" d="M705.93,-179.96C739.26,-183.78 797.71,-190.48 837.78,-195.08"/>
<polygon fill="#000000" stroke="black" points="837.23,-198.54 847.56,-196.2 838.02,-191.58 837.23,-198.54"/>
</g>
<!-- app_auth&#45;&gt;app_api_routes_train -->
<g id="edge12" class="edge">
<title>app_auth&#45;&gt;app_api_routes_train</title><style>.edge>path:hover{stroke-width:8}</style>
<path fill="none" stroke="black" d="M699.17,-164.89C722.32,-150.14 762.52,-124.42 796.76,-102 812.87,-91.45 830.63,-79.63 845.64,-69.58"/>
<polygon fill="#000000" stroke="black" points="847.46,-72.58 853.82,-64.11 843.56,-66.77 847.46,-72.58"/>
</g>
<!-- app_auth_jwt_utils -->
<g id="node9" class="node">
<title>app_auth_jwt_utils</title><style>.edge>path:hover{stroke-width:8}</style>
<ellipse fill="#e72222" stroke="black" cx="679.12" cy="-277" rx="43.64" ry="18"/>
<text xml:space="preserve" text-anchor="middle" x="679.12" y="-273.12" font-family="Helvetica,sans-Serif" font-size="10.00" fill="#ffffff">auth.jwt_utils</text>
</g>
<!-- app_auth_jwt_utils&#45;&gt;app_api_routes_audit -->
<g id="edge13" class="edge">
<title>app_auth_jwt_utils&#45;&gt;app_api_routes_audit</title><style>.edge>path:hover{stroke-width:8}</style>
<path fill="none" stroke="black" d="M711.91,-289.2C746.8,-302.59 802.88,-324.12 840.73,-338.65"/>
<polygon fill="#000000" stroke="black" points="839.37,-341.87 849.96,-342.19 841.88,-335.34 839.37,-341.87"/>
</g>
<!-- app_auth_jwt_utils&#45;&gt;app_api_routes_auth -->
<g id="edge14" class="edge">
<title>app_auth_jwt_utils&#45;&gt;app_api_routes_auth</title><style>.edge>path:hover{stroke-width:8}</style>
<path fill="none" stroke="black" d="M722.54,-280.19C734.26,-280.94 747,-281.63 758.76,-282 784.94,-282.83 814.28,-281.69 837.61,-280.3"/>
<polygon fill="#000000" stroke="black" points="837.62,-283.8 847.38,-279.67 837.17,-276.82 837.62,-283.8"/>
</g>
<!-- app_auth_jwt_utils&#45;&gt;app_api_routes_experiments -->
<g id="edge15" class="edge">
<title>app_auth_jwt_utils&#45;&gt;app_api_routes_experiments</title><style>.edge>path:hover{stroke-width:8}</style>
<path fill="none" stroke="black" d="M700.83,-261.1C734.03,-235.61 799.71,-185.2 841.85,-152.84"/>
<polygon fill="#000000" stroke="black" points="843.72,-155.82 849.52,-146.95 839.46,-150.26 843.72,-155.82"/>
</g>
<!-- app_auth_jwt_utils&#45;&gt;app_api_routes_task -->
<g id="edge16" class="edge">
<title>app_auth_jwt_utils&#45;&gt;app_api_routes_task</title><style>.edge>path:hover{stroke-width:8}</style>
<path fill="none" stroke="black" d="M711.91,-264.8C746.8,-251.41 802.88,-229.88 840.73,-215.35"/>
<polygon fill="#000000" stroke="black" points="841.88,-218.66 849.96,-211.81 839.37,-212.13 841.88,-218.66"/>
</g>
<!-- app_auth_jwt_utils&#45;&gt;app_api_routes_train -->
<g id="edge17" class="edge">
<title>app_auth_jwt_utils&#45;&gt;app_api_routes_train</title><style>.edge>path:hover{stroke-width:8}</style>
<path fill="none" stroke="black" d="M691.96,-259.39C716.13,-224.06 773.88,-142.93 832.76,-84 837.17,-79.58 842.08,-75.19 847.03,-71.05"/>
<polygon fill="#000000" stroke="black" points="849.13,-73.86 854.71,-64.86 844.73,-68.41 849.13,-73.86"/>
</g>
<!-- app_core -->
<g id="node10" class="node">
<title>app_core</title><style>.edge>path:hover{stroke-width:8}</style>
<ellipse fill="#c11515" stroke="black" cx="302.82" cy="-74" rx="27" ry="18"/>
<text xml:space="preserve" text-anchor="middle" x="302.82" y="-70.12" font-family="Helvetica,sans-Serif" font-size="10.00" fill="#ffffff">core</text>
</g>
<!-- app_stepper_ui -->
<g id="node24" class="node">
<title>app_stepper_ui</title><style>.edge>path:hover{stroke-width:8}</style>
<ellipse fill="#995252" stroke="black" cx="409.68" cy="-54" rx="36.09" ry="18"/>
<text xml:space="preserve" text-anchor="middle" x="409.68" y="-50.12" font-family="Helvetica,sans-Serif" font-size="10.00" fill="#ffffff">stepper_ui</text>
</g>
<!-- app_core&#45;&gt;app_stepper_ui -->
<g id="edge18" class="edge">
<title>app_core&#45;&gt;app_stepper_ui</title><style>.edge>path:hover{stroke-width:8}</style>
<path fill="none" stroke="black" d="M329.2,-69.16C339.77,-67.14 352.35,-64.74 364.35,-62.45"/>
<polygon fill="#000000" stroke="black" points="364.94,-65.91 374.11,-60.59 363.63,-59.03 364.94,-65.91"/>
</g>
<!-- app_tasks -->
<g id="node25" class="node">
<title>app_tasks</title><style>.edge>path:hover{stroke-width:8}</style>
<polygon fill="blue" stroke="black" points="706.12,-78 652.12,-78 652.12,-42 706.12,-42 706.12,-78"/>
<text xml:space="preserve" text-anchor="middle" x="679.12" y="-56.12" font-family="Helvetica,sans-Serif" font-size="10.00" fill="white">tasks</text>
</g>
<!-- app_core&#45;&gt;app_tasks -->
<g id="edge19" class="edge">
<title>app_core&#45;&gt;app_tasks</title><style>.edge>path:hover{stroke-width:8}</style>
<path fill="none" stroke="black" d="M329.74,-77.51C341.24,-78.89 354.96,-80.32 367.37,-81 466.12,-86.42 582.38,-73.38 640.73,-65.49"/>
<polygon fill="#000000" stroke="black" points="641.02,-68.98 650.44,-64.14 640.06,-62.05 641.02,-68.98"/>
</g>
<!-- app_tasks_training -->
<g id="node26" class="node">
<title>app_tasks_training</title><style>.edge>path:hover{stroke-width:8}</style>
<polygon fill="blue" stroke="black" points="599.48,-159 524.98,-159 524.98,-123 599.48,-123 599.48,-159"/>
<text xml:space="preserve" text-anchor="middle" x="562.23" y="-137.12" font-family="Helvetica,sans-Serif" font-size="10.00" fill="white">tasks.training</text>
</g>
<!-- app_core&#45;&gt;app_tasks_training -->
<g id="edge20" class="edge">
<title>app_core&#45;&gt;app_tasks_training</title><style>.edge>path:hover{stroke-width:8}</style>
<path fill="none" stroke="black" d="M326.87,-82.64C338.86,-86.96 353.79,-92.09 367.37,-96 416.62,-110.2 473.9,-123.05 513.35,-131.35"/>
<polygon fill="#000000" stroke="black" points="512.51,-134.75 523.01,-133.37 513.93,-127.9 512.51,-134.75"/>
</g>
<!-- app_train_lora_v2 -->
<g id="node27" class="node">
<title>app_train_lora_v2</title><style>.edge>path:hover{stroke-width:8}</style>
<ellipse fill="#883a3a" stroke="black" cx="409.68" cy="-165" rx="42.31" ry="18"/>
<text xml:space="preserve" text-anchor="middle" x="409.68" y="-161.12" font-family="Helvetica,sans-Serif" font-size="10.00" fill="#ffffff">train_lora_v2</text>
</g>
<!-- app_core&#45;&gt;app_train_lora_v2 -->
<g id="edge21" class="edge">
<title>app_core&#45;&gt;app_train_lora_v2</title><style>.edge>path:hover{stroke-width:8}</style>
<path fill="none" stroke="black" d="M320.2,-88.22C336.59,-102.44 362.07,-124.55 381.49,-141.41"/>
<polygon fill="#000000" stroke="black" points="378.94,-143.83 388.79,-147.74 383.53,-138.54 378.94,-143.83"/>
</g>
<!-- app_core_config -->
<g id="node11" class="node">
<title>app_core_config</title><style>.edge>path:hover{stroke-width:8}</style>
<ellipse fill="#ce3b3b" stroke="black" cx="188.77" cy="-231" rx="37.87" ry="18"/>
<text xml:space="preserve" text-anchor="middle" x="188.77" y="-227.12" font-family="Helvetica,sans-Serif" font-size="10.00" fill="#ffffff">core.config</text>
</g>
<!-- app_core_config&#45;&gt;app_core -->
<g id="edge22" class="edge">
<title>app_core_config&#45;&gt;app_core</title><style>.edge>path:hover{stroke-width:8}</style>
<path fill="none" stroke="black" d="M218.47,-219.48C225.71,-215.47 232.93,-210.34 238.27,-204 269.49,-166.9 248.27,-141.93 274.27,-101 275.28,-99.41 276.41,-97.84 277.6,-96.3"/>
<polygon fill="#000000" stroke="black" points="279.93,-98.95 284.01,-89.17 274.72,-94.27 279.93,-98.95"/>
</g>
<!-- app_core_config&#45;&gt;app_tasks_training -->
<g id="edge23" class="edge">
<title>app_core_config&#45;&gt;app_tasks_training</title><style>.edge>path:hover{stroke-width:8}</style>
<path fill="none" stroke="black" d="M224.23,-224C239.52,-221.02 257.76,-217.63 274.27,-215 352.92,-202.47 375.5,-214.22 451.98,-192 474.81,-185.37 498.89,-174.58 518.62,-164.63"/>
<polygon fill="#000000" stroke="black" points="520.17,-167.77 527.45,-160.07 516.96,-161.55 520.17,-167.77"/>
</g>
<!-- app_core_config&#45;&gt;app_train_lora_v2 -->
<g id="edge24" class="edge">
<title>app_core_config&#45;&gt;app_train_lora_v2</title><style>.edge>path:hover{stroke-width:8}</style>
<path fill="none" stroke="black" d="M214.66,-217.64C222.31,-213.4 230.7,-208.62 238.27,-204 254.68,-193.98 256.2,-186.59 274.27,-180 300.09,-170.59 330.41,-166.64 355.7,-165.14"/>
<polygon fill="#000000" stroke="black" points="355.6,-168.65 365.43,-164.68 355.27,-161.66 355.6,-168.65"/>
</g>
<!-- app_core_logger -->
<g id="node12" class="node">
<title>app_core_logger</title><style>.edge>path:hover{stroke-width:8}</style>
<ellipse fill="#ce3b3b" stroke="black" cx="188.77" cy="-285" rx="37.87" ry="18"/>
<text xml:space="preserve" text-anchor="middle" x="188.77" y="-281.12" font-family="Helvetica,sans-Serif" font-size="10.00" fill="#ffffff">core.logger</text>
</g>
<!-- app_core_logger&#45;&gt;app_core -->
<g id="edge25" class="edge">
<title>app_core_logger&#45;&gt;app_core</title><style>.edge>path:hover{stroke-width:8}</style>
<path fill="none" stroke="black" d="M218.94,-273.86C226.19,-269.85 233.29,-264.63 238.27,-258 281.26,-200.75 239.29,-163.46 274.27,-101 275.19,-99.35 276.25,-97.74 277.39,-96.18"/>
<polygon fill="#000000" stroke="black" points="279.74,-98.81 283.66,-88.97 274.46,-94.21 279.74,-98.81"/>
</g>
<!-- app_core_logger&#45;&gt;app_tasks_training -->
<g id="edge26" class="edge">
<title>app_core_logger&#45;&gt;app_tasks_training</title><style>.edge>path:hover{stroke-width:8}</style>
<path fill="none" stroke="black" d="M226.94,-284.64C255.97,-283.45 297.02,-279.75 331.37,-269 406.14,-245.59 483.91,-196.09 527.09,-165.97"/>
<polygon fill="#000000" stroke="black" points="528.89,-168.98 535.04,-160.36 524.85,-163.26 528.89,-168.98"/>
</g>
<!-- app_core_logger&#45;&gt;app_train_lora_v2 -->
<g id="edge27" class="edge">
<title>app_core_logger&#45;&gt;app_train_lora_v2</title><style>.edge>path:hover{stroke-width:8}</style>
<path fill="none" stroke="black" d="M216.57,-272.36C223.96,-268.28 231.73,-263.4 238.27,-258 257.48,-242.12 253.91,-229.38 274.27,-215 300.28,-196.63 333.84,-184.14 360.92,-176.23"/>
<polygon fill="#000000" stroke="black" points="361.56,-179.69 370.25,-173.63 359.68,-172.95 361.56,-179.69"/>
</g>
<!-- app_core_settings -->
<g id="node13" class="node">
<title>app_core_settings</title><style>.edge>path:hover{stroke-width:8}</style>
<ellipse fill="#ce3b3b" stroke="black" cx="188.77" cy="-34" rx="42.75" ry="18"/>
<text xml:space="preserve" text-anchor="middle" x="188.77" y="-30.12" font-family="Helvetica,sans-Serif" font-size="10.00" fill="#ffffff">core.settings</text>
</g>
<!-- app_core_settings&#45;&gt;app_core -->
<g id="edge28" class="edge">
<title>app_core_settings&#45;&gt;app_core</title><style>.edge>path:hover{stroke-width:8}</style>
<path fill="none" stroke="black" d="M222.18,-45.57C236.5,-50.68 253.34,-56.69 267.83,-61.87"/>
<polygon fill="#000000" stroke="black" points="266.36,-65.06 276.95,-65.12 268.71,-58.46 266.36,-65.06"/>
</g>
<!-- app_core_settings&#45;&gt;app_stepper_ui -->
<g id="edge29" class="edge">
<title>app_core_settings&#45;&gt;app_stepper_ui</title><style>.edge>path:hover{stroke-width:8}</style>
<path fill="none" stroke="black" d="M230.95,-37.76C268.4,-41.18 323.62,-46.23 362.55,-49.79"/>
<polygon fill="#000000" stroke="black" points="362.03,-53.25 372.31,-50.68 362.67,-46.28 362.03,-53.25"/>
</g>
<!-- app_core_settings&#45;&gt;app_tasks -->
<g id="edge30" class="edge">
<title>app_core_settings&#45;&gt;app_tasks</title><style>.edge>path:hover{stroke-width:8}</style>
<path fill="none" stroke="black" d="M230.05,-28.99C273.91,-23.98 346.16,-17 408.68,-17 408.68,-17 408.68,-17 488.98,-17 543.08,-17 603.76,-33.93 641.46,-46.55"/>
<polygon fill="#000000" stroke="black" points="639.9,-49.71 650.49,-49.64 642.17,-43.09 639.9,-49.71"/>
</g>
<!-- app_data -->
<g id="node14" class="node">
<title>app_data</title><style>.edge>path:hover{stroke-width:8}</style>
<ellipse fill="#a13535" stroke="black" cx="302.82" cy="-128" rx="27" ry="18"/>
<text xml:space="preserve" text-anchor="middle" x="302.82" y="-124.12" font-family="Helvetica,sans-Serif" font-size="10.00" fill="#ffffff">data</text>
</g>
<!-- app_data&#45;&gt;app_train_lora_v2 -->
<g id="edge31" class="edge">
<title>app_data&#45;&gt;app_train_lora_v2</title><style>.edge>path:hover{stroke-width:8}</style>
<path fill="none" stroke="black" d="M327.35,-136.3C338.67,-140.3 352.61,-145.22 365.73,-149.84"/>
<polygon fill="#000000" stroke="black" points="364.45,-153.11 375.05,-153.13 366.78,-146.51 364.45,-153.11"/>
</g>
<!-- app_data_analysis -->
<g id="node15" class="node">
<title>app_data_analysis</title><style>.edge>path:hover{stroke-width:8}</style>
<ellipse fill="#c24747" stroke="black" cx="59.64" cy="-91" rx="43.64" ry="18"/>
<text xml:space="preserve" text-anchor="middle" x="59.64" y="-87.12" font-family="Helvetica,sans-Serif" font-size="10.00" fill="#ffffff">data.analysis</text>
</g>
<!-- app_data_analysis&#45;&gt;app_data -->
<g id="edge32" class="edge">
<title>app_data_analysis&#45;&gt;app_data</title><style>.edge>path:hover{stroke-width:8}</style>
<path fill="none" stroke="black" d="M97.04,-81.31C133.68,-73.3 191.33,-65.53 238.27,-81 253.28,-85.95 267.65,-95.96 278.92,-105.48"/>
<polygon fill="#000000" stroke="black" points="276.32,-107.85 286.11,-111.89 280.98,-102.62 276.32,-107.85"/>
</g>
<!-- app_data_versioning -->
<g id="node17" class="node">
<title>app_data_versioning</title><style>.edge>path:hover{stroke-width:8}</style>
<ellipse fill="#b34c4c" stroke="black" cx="188.77" cy="-112" rx="42.6" ry="21.57"/>
<text xml:space="preserve" text-anchor="middle" x="188.77" y="-113.75" font-family="Helvetica,sans-Serif" font-size="10.00" fill="#ffffff">data.</text>
<text xml:space="preserve" text-anchor="middle" x="188.77" y="-102.5" font-family="Helvetica,sans-Serif" font-size="10.00" fill="#ffffff">versioning</text>
</g>
<!-- app_data_analysis&#45;&gt;app_data_versioning -->
<g id="edge33" class="edge">
<title>app_data_analysis&#45;&gt;app_data_versioning</title><style>.edge>path:hover{stroke-width:8}</style>
<path fill="none" stroke="black" d="M100.52,-97.59C111.99,-99.48 124.67,-101.58 136.73,-103.57"/>
<polygon fill="#000000" stroke="black" points="136.11,-107.01 146.54,-105.19 137.25,-100.11 136.11,-107.01"/>
</g>
<!-- app_data_validation -->
<g id="node16" class="node">
<title>app_data_validation</title><style>.edge>path:hover{stroke-width:8}</style>
<ellipse fill="#b65353" stroke="black" cx="188.77" cy="-173" rx="40.48" ry="21.57"/>
<text xml:space="preserve" text-anchor="middle" x="188.77" y="-174.75" font-family="Helvetica,sans-Serif" font-size="10.00" fill="#ffffff">data.</text>
<text xml:space="preserve" text-anchor="middle" x="188.77" y="-163.5" font-family="Helvetica,sans-Serif" font-size="10.00" fill="#ffffff">validation</text>
</g>
<!-- app_data_validation&#45;&gt;app_data -->
<g id="edge34" class="edge">
<title>app_data_validation&#45;&gt;app_data</title><style>.edge>path:hover{stroke-width:8}</style>
<path fill="none" stroke="black" d="M221.88,-160.1C236.41,-154.27 253.59,-147.37 268.29,-141.47"/>
<polygon fill="#000000" stroke="black" points="269.58,-144.72 277.55,-137.75 266.97,-138.22 269.58,-144.72"/>
</g>
<!-- app_data_versioning&#45;&gt;app_data -->
<g id="edge35" class="edge">
<title>app_data_versioning&#45;&gt;app_data</title><style>.edge>path:hover{stroke-width:8}</style>
<path fill="none" stroke="black" d="M230.22,-117.78C241.58,-119.4 253.85,-121.15 264.98,-122.74"/>
<polygon fill="#000000" stroke="black" points="264.19,-126.16 274.58,-124.11 265.18,-119.23 264.19,-126.16"/>
</g>
<!-- app_db -->
<g id="node18" class="node">
<title>app_db</title><style>.edge>path:hover{stroke-width:8}</style>
<ellipse fill="#c24747" stroke="black" cx="302.82" cy="-242" rx="27" ry="18"/>
<text xml:space="preserve" text-anchor="middle" x="302.82" y="-238.12" font-family="Helvetica,sans-Serif" font-size="10.00" fill="#ffffff">db</text>
</g>
<!-- app_db&#45;&gt;app_api_routes_experiments -->
<g id="edge36" class="edge">
<title>app_db&#45;&gt;app_api_routes_experiments</title><style>.edge>path:hover{stroke-width:8}</style>
<path fill="none" stroke="black" d="M329.3,-237.57C381.2,-228.13 502.47,-203.9 599.48,-168 616.26,-161.79 618.32,-155.06 635.48,-150 697.04,-131.85 770.55,-125.7 820.93,-123.72"/>
<polygon fill="#000000" stroke="black" points="820.88,-127.22 830.75,-123.38 820.64,-120.22 820.88,-127.22"/>
</g>
<!-- app_db&#45;&gt;app_train_lora_v2 -->
<g id="edge37" class="edge">
<title>app_db&#45;&gt;app_train_lora_v2</title><style>.edge>path:hover{stroke-width:8}</style>
<path fill="none" stroke="black" d="M321.61,-228.94C337.13,-217.54 359.99,-200.75 378.39,-187.24"/>
<polygon fill="#000000" stroke="black" points="380.33,-190.15 386.32,-181.41 376.19,-184.51 380.33,-190.15"/>
</g>
<!-- app_exceptions -->
<g id="node19" class="node">
<title>app_exceptions</title><style>.edge>path:hover{stroke-width:8}</style>
<ellipse fill="#c24747" stroke="black" cx="409.68" cy="-386" rx="37.42" ry="18"/>
<text xml:space="preserve" text-anchor="middle" x="409.68" y="-382.12" font-family="Helvetica,sans-Serif" font-size="10.00" fill="#ffffff">exceptions</text>
</g>
<!-- app_exceptions&#45;&gt;app_main -->
<g id="edge38" class="edge">
<title>app_exceptions&#45;&gt;app_main</title><style>.edge>path:hover{stroke-width:8}</style>
<path fill="none" stroke="black" d="M445.23,-392.14C475.67,-397.01 521.25,-403 561.23,-403 561.23,-403 561.23,-403 680.12,-403 769.72,-403 791.12,-423 880.72,-423 880.72,-423 880.72,-423 1002.45,-423 1054.41,-423 1114.06,-415.17 1151.45,-409.31"/>
<polygon fill="#000000" stroke="black" points="1151.96,-412.77 1161.27,-407.73 1150.84,-405.86 1151.96,-412.77"/>
</g>
<!-- app_exceptions&#45;&gt;app_tasks_training -->
<g id="edge39" class="edge">
<title>app_exceptions&#45;&gt;app_tasks_training</title><style>.edge>path:hover{stroke-width:8}</style>
<path fill="none" stroke="black" d="M425.69,-369.29C442.37,-350.24 469.52,-317.74 488.98,-287 513.64,-248.05 536.18,-199.52 549.31,-169.39"/>
<polygon fill="#000000" stroke="black" points="552.37,-171.14 553.11,-160.57 545.94,-168.37 552.37,-171.14"/>
</g>
<!-- app_monitor -->
<g id="node21" class="node">
<title>app_monitor</title><style>.edge>path:hover{stroke-width:8}</style>
<ellipse fill="#bf2121" stroke="black" cx="302.82" cy="-349" rx="28.55" ry="18"/>
<text xml:space="preserve" text-anchor="middle" x="302.82" y="-345.12" font-family="Helvetica,sans-Serif" font-size="10.00" fill="#ffffff">monitor</text>
</g>
<!-- app_monitor&#45;&gt;app_api_routes_audit -->
<g id="edge40" class="edge">
<title>app_monitor&#45;&gt;app_api_routes_audit</title><style>.edge>path:hover{stroke-width:8}</style>
<path fill="none" stroke="black" d="M331.32,-346.36C342.49,-345.41 355.54,-344.46 367.37,-344 404.95,-342.52 414.38,-343.56 451.98,-344 593.08,-345.65 760.24,-350.34 837.55,-352.66"/>
<polygon fill="#000000" stroke="black" points="837.11,-356.15 847.21,-352.95 837.32,-349.15 837.11,-356.15"/>
</g>
<!-- app_monitor&#45;&gt;app_main -->
<g id="edge41" class="edge">
<title>app_monitor&#45;&gt;app_main</title><style>.edge>path:hover{stroke-width:8}</style>
<path fill="none" stroke="black" d="M331.69,-350.7C361.48,-352.56 410.09,-355.72 451.98,-359 621.37,-372.28 663.14,-383.05 832.76,-393 948.5,-399.79 1085.73,-402 1150.63,-402.69"/>
<polygon fill="#000000" stroke="black" points="1150.33,-406.19 1160.37,-402.79 1150.4,-399.19 1150.33,-406.19"/>
</g>
<!-- app_monitor&#45;&gt;app_train_lora_v2 -->
<g id="edge42" class="edge">
<title>app_monitor&#45;&gt;app_train_lora_v2</title><style>.edge>path:hover{stroke-width:8}</style>
<path fill="none" stroke="black" d="M313.5,-332.02C331.69,-300.09 371.15,-230.85 393.12,-192.3"/>
<polygon fill="#000000" stroke="black" points="395.9,-194.48 397.81,-184.06 389.82,-191.02 395.9,-194.48"/>
</g>
<!-- app_monitor_audit -->
<g id="node22" class="node">
<title>app_monitor_audit</title><style>.edge>path:hover{stroke-width:8}</style>
<ellipse fill="#ce3b3b" stroke="black" cx="188.77" cy="-415" rx="42.31" ry="18"/>
<text xml:space="preserve" text-anchor="middle" x="188.77" y="-411.12" font-family="Helvetica,sans-Serif" font-size="10.00" fill="#ffffff">monitor.audit</text>
</g>
<!-- app_monitor_audit&#45;&gt;app_api_routes_audit -->
<g id="edge43" class="edge">
<title>app_monitor_audit&#45;&gt;app_api_routes_audit</title><style>.edge>path:hover{stroke-width:8}</style>
<path fill="none" stroke="black" d="M230.91,-417.4C274.89,-419.76 346.69,-423 408.68,-423 408.68,-423 408.68,-423 680.12,-423 739.83,-423 804.37,-395.32 843.68,-375.03"/>
<polygon fill="#000000" stroke="black" points="845.29,-378.13 852.49,-370.36 842.01,-371.95 845.29,-378.13"/>
</g>
<!-- app_monitor_audit&#45;&gt;app_main -->
<g id="edge44" class="edge">
<title>app_monitor_audit&#45;&gt;app_main</title><style>.edge>path:hover{stroke-width:8}</style>
<path fill="none" stroke="black" d="M227.55,-422.8C271.03,-431.08 344.69,-443 408.68,-443 408.68,-443 408.68,-443 1002.45,-443 1056.42,-443 1117.26,-426.67 1154.16,-414.88"/>
<polygon fill="#000000" stroke="black" points="1154.96,-418.3 1163.37,-411.86 1152.78,-411.65 1154.96,-418.3"/>
</g>
<!-- app_monitor_audit&#45;&gt;app_monitor -->
<g id="edge45" class="edge">
<title>app_monitor_audit&#45;&gt;app_monitor</title><style>.edge>path:hover{stroke-width:8}</style>
<path fill="none" stroke="black" d="M214.64,-400.35C231.35,-390.51 253.48,-377.48 271.26,-367"/>
<polygon fill="#000000" stroke="black" points="273.01,-370.03 279.85,-361.94 269.45,-364 273.01,-370.03"/>
</g>
<!-- app_monitor_performance -->
<g id="node23" class="node">
<title>app_monitor_performance</title><style>.edge>path:hover{stroke-width:8}</style>
<ellipse fill="#b65353" stroke="black" cx="188.77" cy="-349" rx="49.5" ry="21.57"/>
<text xml:space="preserve" text-anchor="middle" x="188.77" y="-350.75" font-family="Helvetica,sans-Serif" font-size="10.00" fill="#ffffff">monitor.</text>
<text xml:space="preserve" text-anchor="middle" x="188.77" y="-339.5" font-family="Helvetica,sans-Serif" font-size="10.00" fill="#ffffff">performance</text>
</g>
<!-- app_monitor_performance&#45;&gt;app_monitor -->
<g id="edge46" class="edge">
<title>app_monitor_performance&#45;&gt;app_monitor</title><style>.edge>path:hover{stroke-width:8}</style>
<path fill="none" stroke="black" d="M238.59,-349C246.66,-349 254.93,-349 262.72,-349"/>
<polygon fill="#000000" stroke="black" points="262.57,-352.5 272.57,-349 262.57,-345.5 262.57,-352.5"/>
</g>
<!-- app_tasks&#45;&gt;app_api_routes_train -->
<g id="edge47" class="edge">
<title>app_tasks&#45;&gt;app_api_routes_train</title><style>.edge>path:hover{stroke-width:8}</style>
<path fill="none" stroke="black" d="M706.34,-58.17C739.69,-55.84 797.73,-51.79 837.62,-49.01"/>
<polygon fill="#000000" stroke="black" points="837.62,-52.52 847.35,-48.33 837.14,-45.53 837.62,-52.52"/>
</g>
<!-- app_tasks_training&#45;&gt;app_api_routes_train -->
<g id="edge48" class="edge">
<title>app_tasks_training&#45;&gt;app_api_routes_train</title><style>.edge>path:hover{stroke-width:8}</style>
<path fill="none" stroke="black" d="M599.96,-130.01C659.58,-112.17 777.03,-77.03 839.45,-58.35"/>
<polygon fill="#000000" stroke="black" points="840.41,-61.71 848.99,-55.5 838.41,-55.01 840.41,-61.71"/>
</g>
<!-- app_tasks_training&#45;&gt;app_tasks -->
<g id="edge49" class="edge">
<title>app_tasks_training&#45;&gt;app_tasks</title><style>.edge>path:hover{stroke-width:8}</style>
<path fill="none" stroke="black" d="M589.3,-122.62C605.17,-111.43 625.63,-97 642.92,-84.81"/>
<polygon fill="#000000" stroke="black" points="644.76,-87.8 650.92,-79.18 640.73,-82.08 644.76,-87.8"/>
</g>
<!-- app_train_lora_v2&#45;&gt;app_tasks_training -->
<g id="edge50" class="edge">
<title>app_train_lora_v2&#45;&gt;app_tasks_training</title><style>.edge>path:hover{stroke-width:8}</style>
<path fill="none" stroke="black" d="M449.84,-158.76C469.23,-155.67 492.81,-151.91 513.27,-148.64"/>
<polygon fill="#000000" stroke="black" points="513.77,-152.11 523.1,-147.08 512.67,-145.2 513.77,-152.11"/>
</g>
</g>
</svg>
