<?xml version="1.0" encoding="UTF-8" standalone="no"?>
<!DOCTYPE svg PUBLIC "-//W3C//DTD SVG 1.1//EN"
 "http://www.w3.org/Graphics/SVG/1.1/DTD/svg11.dtd">
<!-- Generated by graphviz version 13.1.2 (20250808.2320)
 -->
<!-- Title: G Pages: 1 -->
<svg width="1603pt" height="493pt"
 viewBox="0.00 0.00 1603.00 493.00" xmlns="http://www.w3.org/2000/svg" xmlns:xlink="http://www.w3.org/1999/xlink">
<g id="graph0" class="graph" transform="scale(1 1) rotate(0) translate(4 489)">
<title>G</title><style>.edge>path:hover{stroke-width:8}</style>
<polygon fill="white" stroke="none" points="-4,4 -4,-489 1599.49,-489 1599.49,4 -4,4"/>
<g id="clust1" class="cluster">
<title>cluster_app</title><style>.edge>path:hover{stroke-width:8}</style>
<polygon fill="none" stroke="black" points="8,-8 8,-477 1587.49,-477 1587.49,-8 8,-8"/>
<text xml:space="preserve" text-anchor="middle" x="797.74" y="-459.7" font-family="Times,serif" font-size="14.00">app</text>
</g>
<!-- app_api -->
<g id="node1" class="node">
<title>app_api</title><style>.edge>path:hover{stroke-width:8}</style>
<ellipse fill="#c24747" stroke="black" cx="1462.49" cy="-34" rx="27" ry="18"/>
<text xml:space="preserve" text-anchor="middle" x="1462.49" y="-30.12" font-family="Helvetica,sans-Serif" font-size="10.00" fill="#ffffff">api</text>
</g>
<!-- app_main -->
<g id="node20" class="node">
<title>app_main</title><style>.edge>path:hover{stroke-width:8}</style>
<ellipse fill="#854747" stroke="black" cx="1552.49" cy="-220" rx="27" ry="18"/>
<text xml:space="preserve" text-anchor="middle" x="1552.49" y="-216.12" font-family="Helvetica,sans-Serif" font-size="10.00" fill="#ffffff">main</text>
</g>
<!-- app_api&#45;&gt;app_main -->
<g id="edge1" class="edge">
<title>app_api&#45;&gt;app_main</title><style>.edge>path:hover{stroke-width:8}</style>
<path fill="none" stroke="black" d="M1477.44,-49.26C1481.66,-54.35 1486.07,-60.2 1489.49,-66 1513.73,-107.13 1532.56,-159.52 1542.83,-191.37"/>
<polygon fill="#000000" stroke="black" points="1539.42,-192.19 1545.76,-200.67 1546.09,-190.08 1539.42,-192.19"/>
</g>
<!-- app_api_routes -->
<g id="node2" class="node">
<title>app_api_routes</title><style>.edge>path:hover{stroke-width:8}</style>
<ellipse fill="#8a2e2e" stroke="black" cx="1364.72" cy="-220" rx="34.76" ry="18"/>
<text xml:space="preserve" text-anchor="middle" x="1364.72" y="-216.12" font-family="Helvetica,sans-Serif" font-size="10.00" fill="#ffffff">api.routes</text>
</g>
<!-- app_api_routes&#45;&gt;app_main -->
<g id="edge2" class="edge">
<title>app_api_routes&#45;&gt;app_main</title><style>.edge>path:hover{stroke-width:8}</style>
<path fill="none" stroke="black" d="M1399.79,-220C1432.12,-220 1480.59,-220 1514,-220"/>
<polygon fill="#000000" stroke="black" points="1513.62,-223.5 1523.62,-220 1513.62,-216.5 1513.62,-223.5"/>
</g>
<!-- app_api_routes_audit -->
<g id="node3" class="node">
<title>app_api_routes_audit</title><style>.edge>path:hover{stroke-width:8}</style>
<ellipse fill="#964040" stroke="black" cx="1244.99" cy="-297" rx="32.53" ry="29.52"/>
<text xml:space="preserve" text-anchor="middle" x="1244.99" y="-304.38" font-family="Helvetica,sans-Serif" font-size="10.00" fill="#ffffff">api.</text>
<text xml:space="preserve" text-anchor="middle" x="1244.99" y="-293.12" font-family="Helvetica,sans-Serif" font-size="10.00" fill="#ffffff">routes.</text>
<text xml:space="preserve" text-anchor="middle" x="1244.99" y="-281.88" font-family="Helvetica,sans-Serif" font-size="10.00" fill="#ffffff">audit</text>
</g>
<!-- app_api_routes_audit&#45;&gt;app_api_routes -->
<g id="edge3" class="edge">
<title>app_api_routes_audit&#45;&gt;app_api_routes</title><style>.edge>path:hover{stroke-width:8}</style>
<path fill="none" stroke="black" d="M1272.12,-279.91C1290.04,-268.19 1313.89,-252.6 1332.76,-240.25"/>
<polygon fill="#000000" stroke="black" points="1334.67,-243.19 1341.12,-234.78 1330.83,-237.33 1334.67,-243.19"/>
</g>
<!-- app_api_routes_auth -->
<g id="node4" class="node">
<title>app_api_routes_auth</title><style>.edge>path:hover{stroke-width:8}</style>
<ellipse fill="#a44646" stroke="black" cx="1244.99" cy="-143" rx="32.53" ry="29.52"/>
<text xml:space="preserve" text-anchor="middle" x="1244.99" y="-150.38" font-family="Helvetica,sans-Serif" font-size="10.00" fill="#ffffff">api.</text>
<text xml:space="preserve" text-anchor="middle" x="1244.99" y="-139.12" font-family="Helvetica,sans-Serif" font-size="10.00" fill="#ffffff">routes.</text>
<text xml:space="preserve" text-anchor="middle" x="1244.99" y="-127.88" font-family="Helvetica,sans-Serif" font-size="10.00" fill="#ffffff">auth</text>
</g>
<!-- app_api_routes_auth&#45;&gt;app_api_routes -->
<g id="edge4" class="edge">
<title>app_api_routes_auth&#45;&gt;app_api_routes</title><style>.edge>path:hover{stroke-width:8}</style>
<path fill="none" stroke="black" d="M1272.12,-160.09C1290.04,-171.81 1313.89,-187.4 1332.76,-199.75"/>
<polygon fill="#000000" stroke="black" points="1330.83,-202.67 1341.12,-205.22 1334.67,-196.81 1330.83,-202.67"/>
</g>
<!-- app_api_routes_experiments -->
<g id="node5" class="node">
<title>app_api_routes_experiments</title><style>.edge>path:hover{stroke-width:8}</style>
<ellipse fill="#9d4343" stroke="black" cx="1244.99" cy="-374" rx="48.97" ry="29.52"/>
<text xml:space="preserve" text-anchor="middle" x="1244.99" y="-381.38" font-family="Helvetica,sans-Serif" font-size="10.00" fill="#ffffff">api.</text>
<text xml:space="preserve" text-anchor="middle" x="1244.99" y="-370.12" font-family="Helvetica,sans-Serif" font-size="10.00" fill="#ffffff">routes.</text>
<text xml:space="preserve" text-anchor="middle" x="1244.99" y="-358.88" font-family="Helvetica,sans-Serif" font-size="10.00" fill="#ffffff">experiments</text>
</g>
<!-- app_api_routes_experiments&#45;&gt;app_api_routes -->
<g id="edge5" class="edge">
<title>app_api_routes_experiments&#45;&gt;app_api_routes</title><style>.edge>path:hover{stroke-width:8}</style>
<path fill="none" stroke="black" d="M1277.64,-351.61C1283.41,-346.8 1289.12,-341.51 1293.96,-336 1317.75,-308.94 1338.07,-272.69 1350.54,-247.96"/>
<polygon fill="#000000" stroke="black" points="1353.59,-249.68 1354.87,-239.16 1347.31,-246.58 1353.59,-249.68"/>
</g>
<!-- app_api_routes_task -->
<g id="node6" class="node">
<title>app_api_routes_task</title><style>.edge>path:hover{stroke-width:8}</style>
<ellipse fill="#a44646" stroke="black" cx="1244.99" cy="-220" rx="32.53" ry="29.52"/>
<text xml:space="preserve" text-anchor="middle" x="1244.99" y="-227.38" font-family="Helvetica,sans-Serif" font-size="10.00" fill="#ffffff">api.</text>
<text xml:space="preserve" text-anchor="middle" x="1244.99" y="-216.12" font-family="Helvetica,sans-Serif" font-size="10.00" fill="#ffffff">routes.</text>
<text xml:space="preserve" text-anchor="middle" x="1244.99" y="-204.88" font-family="Helvetica,sans-Serif" font-size="10.00" fill="#ffffff">task</text>
</g>
<!-- app_api_routes_task&#45;&gt;app_api_routes -->
<g id="edge6" class="edge">
<title>app_api_routes_task&#45;&gt;app_api_routes</title><style>.edge>path:hover{stroke-width:8}</style>
<path fill="none" stroke="black" d="M1277.85,-220C1290.41,-220 1305.06,-220 1318.66,-220"/>
<polygon fill="#000000" stroke="black" points="1318.26,-223.5 1328.26,-220 1318.26,-216.5 1318.26,-223.5"/>
</g>
<!-- app_api_routes_train -->
<g id="node7" class="node">
<title>app_api_routes_train</title><style>.edge>path:hover{stroke-width:8}</style>
<ellipse fill="#964040" stroke="black" cx="1244.99" cy="-66" rx="32.53" ry="29.52"/>
<text xml:space="preserve" text-anchor="middle" x="1244.99" y="-73.38" font-family="Helvetica,sans-Serif" font-size="10.00" fill="#ffffff">api.</text>
<text xml:space="preserve" text-anchor="middle" x="1244.99" y="-62.12" font-family="Helvetica,sans-Serif" font-size="10.00" fill="#ffffff">routes.</text>
<text xml:space="preserve" text-anchor="middle" x="1244.99" y="-50.88" font-family="Helvetica,sans-Serif" font-size="10.00" fill="#ffffff">train</text>
</g>
<!-- app_api_routes_train&#45;&gt;app_api_routes -->
<g id="edge7" class="edge">
<title>app_api_routes_train&#45;&gt;app_api_routes</title><style>.edge>path:hover{stroke-width:8}</style>
<path fill="none" stroke="black" d="M1271.39,-83.38C1279.15,-89.38 1287.37,-96.5 1293.96,-104 1317.75,-131.06 1338.07,-167.31 1350.54,-192.04"/>
<polygon fill="#000000" stroke="black" points="1347.31,-193.42 1354.87,-200.84 1353.59,-190.32 1347.31,-193.42"/>
</g>
<!-- app_auth -->
<g id="node8" class="node">
<title>app_auth</title><style>.edge>path:hover{stroke-width:8}</style>
<ellipse fill="#e72222" stroke="black" cx="958.78" cy="-182" rx="27" ry="18"/>
<text xml:space="preserve" text-anchor="middle" x="958.78" y="-178.12" font-family="Helvetica,sans-Serif" font-size="10.00" fill="#ffffff">auth</text>
</g>
<!-- app_auth&#45;&gt;app_api_routes_audit -->
<g id="edge8" class="edge">
<title>app_auth&#45;&gt;app_api_routes_audit</title><style>.edge>path:hover{stroke-width:8}</style>
<path fill="none" stroke="black" d="M980.1,-193.57C995.76,-202.24 1018.11,-214.1 1038.41,-223 1094.27,-247.48 1161.04,-270.4 1203,-284.06"/>
<polygon fill="#000000" stroke="black" points="1201.85,-287.37 1212.44,-287.11 1204,-280.71 1201.85,-287.37"/>
</g>
<!-- app_auth&#45;&gt;app_api_routes_auth -->
<g id="edge9" class="edge">
<title>app_auth&#45;&gt;app_api_routes_auth</title><style>.edge>path:hover{stroke-width:8}</style>
<path fill="none" stroke="black" d="M985.75,-178.44C1034.83,-171.7 1141.6,-157.05 1201.34,-148.85"/>
<polygon fill="#000000" stroke="black" points="1201.7,-152.34 1211.13,-147.51 1200.74,-145.4 1201.7,-152.34"/>
</g>
<!-- app_auth&#45;&gt;app_api_routes_experiments -->
<g id="edge10" class="edge">
<title>app_auth&#45;&gt;app_api_routes_experiments</title><style>.edge>path:hover{stroke-width:8}</style>
<path fill="none" stroke="black" d="M977.82,-195.13C985.49,-200.81 994.48,-207.62 1002.41,-214 1018.87,-227.23 1021.42,-232.46 1038.41,-245 1091.31,-284.02 1156.07,-323.39 1198.6,-348.19"/>
<polygon fill="#000000" stroke="black" points="1196.67,-351.11 1207.08,-353.1 1200.18,-345.06 1196.67,-351.11"/>
</g>
<!-- app_auth&#45;&gt;app_api_routes_task -->
<g id="edge11" class="edge">
<title>app_auth&#45;&gt;app_api_routes_task</title><style>.edge>path:hover{stroke-width:8}</style>
<path fill="none" stroke="black" d="M980.86,-192.6C996.36,-199.82 1018.15,-208.79 1038.41,-213 1093.59,-224.46 1158.85,-224.45 1200.8,-222.76"/>
<polygon fill="#000000" stroke="black" points="1200.91,-226.26 1210.74,-222.3 1200.59,-219.26 1200.91,-226.26"/>
</g>
<!-- app_auth&#45;&gt;app_api_routes_train -->
<g id="edge12" class="edge">
<title>app_auth&#45;&gt;app_api_routes_train</title><style>.edge>path:hover{stroke-width:8}</style>
<path fill="none" stroke="black" d="M982.08,-172.9C1030.1,-153.3 1143.83,-106.88 1204.41,-82.16"/>
<polygon fill="#000000" stroke="black" points="1205.39,-85.54 1213.32,-78.52 1202.74,-79.06 1205.39,-85.54"/>
</g>
<!-- app_auth_jwt_utils -->
<g id="node9" class="node">
<title>app_auth_jwt_utils</title><style>.edge>path:hover{stroke-width:8}</style>
<ellipse fill="#e72222" stroke="black" cx="958.78" cy="-128" rx="43.64" ry="18"/>
<text xml:space="preserve" text-anchor="middle" x="958.78" y="-124.12" font-family="Helvetica,sans-Serif" font-size="10.00" fill="#ffffff">auth.jwt_utils</text>
</g>
<!-- app_auth_jwt_utils&#45;&gt;app_api_routes_audit -->
<g id="edge13" class="edge">
<title>app_auth_jwt_utils&#45;&gt;app_api_routes_audit</title><style>.edge>path:hover{stroke-width:8}</style>
<path fill="none" stroke="black" d="M985.56,-142.52C1023.88,-164.19 1097.98,-206.46 1160.03,-244 1176.12,-253.73 1193.75,-264.8 1208.68,-274.29"/>
<polygon fill="#000000" stroke="black" points="1206.47,-277.03 1216.78,-279.46 1210.23,-271.13 1206.47,-277.03"/>
</g>
<!-- app_auth_jwt_utils&#45;&gt;app_api_routes_auth -->
<g id="edge14" class="edge">
<title>app_auth_jwt_utils&#45;&gt;app_api_routes_auth</title><style>.edge>path:hover{stroke-width:8}</style>
<path fill="none" stroke="black" d="M1002.33,-130.25C1055.85,-133.07 1147.24,-137.89 1200.98,-140.73"/>
<polygon fill="#000000" stroke="black" points="1200.49,-144.21 1210.66,-141.24 1200.86,-137.22 1200.49,-144.21"/>
</g>
<!-- app_auth_jwt_utils&#45;&gt;app_api_routes_experiments -->
<g id="edge15" class="edge">
<title>app_auth_jwt_utils&#45;&gt;app_api_routes_experiments</title><style>.edge>path:hover{stroke-width:8}</style>
<path fill="none" stroke="black" d="M985.64,-142.32C991.44,-146.08 997.37,-150.39 1002.41,-155 1021.83,-172.76 1017.86,-185.57 1038.41,-202 1070.75,-227.86 1090.67,-215.16 1123.03,-241 1164.64,-274.22 1158.65,-298.07 1196.03,-336 1198.72,-338.73 1201.6,-341.45 1204.58,-344.1"/>
<polygon fill="#000000" stroke="black" points="1202.06,-346.55 1211.94,-350.38 1206.6,-341.23 1202.06,-346.55"/>
</g>
<!-- app_auth_jwt_utils&#45;&gt;app_api_routes_task -->
<g id="edge16" class="edge">
<title>app_auth_jwt_utils&#45;&gt;app_api_routes_task</title><style>.edge>path:hover{stroke-width:8}</style>
<path fill="none" stroke="black" d="M997.56,-136.62C1038.21,-146.3 1104.48,-163.26 1160.03,-183 1175.1,-188.36 1191.26,-195.2 1205.35,-201.55"/>
<polygon fill="#000000" stroke="black" points="1203.73,-204.66 1214.28,-205.64 1206.65,-198.29 1203.73,-204.66"/>
</g>
<!-- app_auth_jwt_utils&#45;&gt;app_api_routes_train -->
<g id="edge17" class="edge">
<title>app_auth_jwt_utils&#45;&gt;app_api_routes_train</title><style>.edge>path:hover{stroke-width:8}</style>
<path fill="none" stroke="black" d="M1000.77,-122.53C1041.49,-116.7 1105.55,-106.45 1160.03,-93 1174.46,-89.44 1190.01,-84.7 1203.77,-80.18"/>
<polygon fill="#000000" stroke="black" points="1204.55,-83.61 1212.92,-77.12 1202.33,-76.97 1204.55,-83.61"/>
</g>
<!-- app_core -->
<g id="node10" class="node">
<title>app_core</title><style>.edge>path:hover{stroke-width:8}</style>
<ellipse fill="#d10505" stroke="black" cx="181.88" cy="-157" rx="27" ry="18"/>
<text xml:space="preserve" text-anchor="middle" x="181.88" y="-153.12" font-family="Helvetica,sans-Serif" font-size="10.00" fill="#ffffff">core</text>
</g>
<!-- app_stepper_ui -->
<g id="node25" class="node">
<title>app_stepper_ui</title><style>.edge>path:hover{stroke-width:8}</style>
<ellipse fill="#995252" stroke="black" cx="296.58" cy="-74" rx="36.09" ry="18"/>
<text xml:space="preserve" text-anchor="middle" x="296.58" y="-70.12" font-family="Helvetica,sans-Serif" font-size="10.00" fill="#ffffff">stepper_ui</text>
</g>
<!-- app_core&#45;&gt;app_stepper_ui -->
<g id="edge18" class="edge">
<title>app_core&#45;&gt;app_stepper_ui</title><style>.edge>path:hover{stroke-width:8}</style>
<path fill="none" stroke="black" d="M200.74,-143.85C218.39,-130.85 245.7,-110.73 266.49,-95.42"/>
<polygon fill="#000000" stroke="black" points="268.33,-98.42 274.3,-89.67 264.17,-92.78 268.33,-98.42"/>
</g>
<!-- app_tasks -->
<g id="node26" class="node">
<title>app_tasks</title><style>.edge>path:hover{stroke-width:8}</style>
<polygon fill="blue" stroke="black" points="985.78,-52 931.78,-52 931.78,-16 985.78,-16 985.78,-52"/>
<text xml:space="preserve" text-anchor="middle" x="958.78" y="-30.12" font-family="Helvetica,sans-Serif" font-size="10.00" fill="white">tasks</text>
</g>
<!-- app_core&#45;&gt;app_tasks -->
<g id="edge19" class="edge">
<title>app_core&#45;&gt;app_tasks</title><style>.edge>path:hover{stroke-width:8}</style>
<path fill="none" stroke="black" d="M205.27,-147.61C220.58,-141.51 241.46,-133.83 260.48,-129 507.34,-66.29 814.54,-42.72 920.11,-36.12"/>
<polygon fill="#000000" stroke="black" points="920.13,-39.63 929.9,-35.53 919.7,-32.64 920.13,-39.63"/>
</g>
<!-- app_tasks_training -->
<g id="node27" class="node">
<title>app_tasks_training</title><style>.edge>path:hover{stroke-width:8}</style>
<polygon fill="blue" stroke="black" points="855.75,-106 781.25,-106 781.25,-70 855.75,-70 855.75,-106"/>
<text xml:space="preserve" text-anchor="middle" x="818.5" y="-84.12" font-family="Helvetica,sans-Serif" font-size="10.00" fill="white">tasks.training</text>
</g>
<!-- app_core&#45;&gt;app_tasks_training -->
<g id="edge20" class="edge">
<title>app_core&#45;&gt;app_tasks_training</title><style>.edge>path:hover{stroke-width:8}</style>
<path fill="none" stroke="black" d="M208.54,-152.9C288.19,-140.21 530.62,-102.08 610.02,-95 664.66,-90.13 727.66,-88.57 769.77,-88.12"/>
<polygon fill="#000000" stroke="black" points="769.59,-91.62 779.56,-88.03 769.53,-84.62 769.59,-91.62"/>
</g>
<!-- app_train_evaluator -->
<g id="node29" class="node">
<title>app_train_evaluator</title><style>.edge>path:hover{stroke-width:8}</style>
<ellipse fill="#b03a3a" stroke="black" cx="408.09" cy="-210" rx="39.42" ry="21.57"/>
<text xml:space="preserve" text-anchor="middle" x="408.09" y="-211.75" font-family="Helvetica,sans-Serif" font-size="10.00" fill="#ffffff">train.</text>
<text xml:space="preserve" text-anchor="middle" x="408.09" y="-200.5" font-family="Helvetica,sans-Serif" font-size="10.00" fill="#ffffff">evaluator</text>
</g>
<!-- app_core&#45;&gt;app_train_evaluator -->
<g id="edge21" class="edge">
<title>app_core&#45;&gt;app_train_evaluator</title><style>.edge>path:hover{stroke-width:8}</style>
<path fill="none" stroke="black" d="M207.67,-163.15C222.9,-166.91 242.81,-171.79 260.48,-176 293.8,-183.94 331.44,-192.67 360.24,-199.29"/>
<polygon fill="#000000" stroke="black" points="359.21,-202.64 369.74,-201.47 360.77,-195.82 359.21,-202.64"/>
</g>
<!-- app_train_preprocess -->
<g id="node30" class="node">
<title>app_train_preprocess</title><style>.edge>path:hover{stroke-width:8}</style>
<ellipse fill="#9d4343" stroke="black" cx="528.77" cy="-270" rx="45.25" ry="21.57"/>
<text xml:space="preserve" text-anchor="middle" x="528.77" y="-271.75" font-family="Helvetica,sans-Serif" font-size="10.00" fill="#ffffff">train.</text>
<text xml:space="preserve" text-anchor="middle" x="528.77" y="-260.5" font-family="Helvetica,sans-Serif" font-size="10.00" fill="#ffffff">preprocess</text>
</g>
<!-- app_core&#45;&gt;app_train_preprocess -->
<g id="edge22" class="edge">
<title>app_core&#45;&gt;app_train_preprocess</title><style>.edge>path:hover{stroke-width:8}</style>
<path fill="none" stroke="black" d="M203.4,-168.3C236.97,-186.31 306.15,-221.49 368.67,-241 402.8,-251.65 442.35,-258.88 473.48,-263.46"/>
<polygon fill="#000000" stroke="black" points="472.65,-266.88 483.04,-264.82 473.63,-259.95 472.65,-266.88"/>
</g>
<!-- app_train_runner -->
<g id="node31" class="node">
<title>app_train_runner</title><style>.edge>path:hover{stroke-width:8}</style>
<polygon fill="blue" stroke="black" points="561.14,-207 496.39,-207 496.39,-171 561.14,-171 561.14,-207"/>
<text xml:space="preserve" text-anchor="middle" x="528.77" y="-185.12" font-family="Helvetica,sans-Serif" font-size="10.00" fill="white">train.runner</text>
</g>
<!-- app_core&#45;&gt;app_train_runner -->
<g id="edge23" class="edge">
<title>app_core&#45;&gt;app_train_runner</title><style>.edge>path:hover{stroke-width:8}</style>
<path fill="none" stroke="black" d="M209.2,-158.83C256.82,-162.22 360.39,-169.95 447.51,-179 459.68,-180.26 472.87,-181.83 484.97,-183.34"/>
<polygon fill="#000000" stroke="black" points="484.3,-186.78 494.66,-184.57 485.18,-179.84 484.3,-186.78"/>
</g>
<!-- app_train_lora_v2 -->
<g id="node32" class="node">
<title>app_train_lora_v2</title><style>.edge>path:hover{stroke-width:8}</style>
<ellipse fill="#7e4444" stroke="black" cx="1080.72" cy="-366" rx="42.31" ry="18"/>
<text xml:space="preserve" text-anchor="middle" x="1080.72" y="-362.12" font-family="Helvetica,sans-Serif" font-size="10.00" fill="#ffffff">train_lora_v2</text>
</g>
<!-- app_core&#45;&gt;app_train_lora_v2 -->
<g id="edge24" class="edge">
<title>app_core&#45;&gt;app_train_lora_v2</title><style>.edge>path:hover{stroke-width:8}</style>
<path fill="none" stroke="black" d="M209.03,-155.87C320.06,-151.38 752.59,-137.22 879.14,-183 897.7,-189.71 896.94,-201.35 915.14,-209 951.42,-224.25 970.41,-201.09 1002.41,-224 1012.69,-231.35 1046.76,-298.62 1066.06,-337.88"/>
<polygon fill="#000000" stroke="black" points="1062.88,-339.33 1070.42,-346.77 1069.17,-336.25 1062.88,-339.33"/>
</g>
<!-- app_core_config -->
<g id="node11" class="node">
<title>app_core_config</title><style>.edge>path:hover{stroke-width:8}</style>
<ellipse fill="#e72222" stroke="black" cx="59.64" cy="-250" rx="37.87" ry="18"/>
<text xml:space="preserve" text-anchor="middle" x="59.64" y="-246.12" font-family="Helvetica,sans-Serif" font-size="10.00" fill="#ffffff">core.config</text>
</g>
<!-- app_core_config&#45;&gt;app_core -->
<g id="edge25" class="edge">
<title>app_core_config&#45;&gt;app_core</title><style>.edge>path:hover{stroke-width:8}</style>
<path fill="none" stroke="black" d="M80.49,-234.64C100.69,-219.02 132.1,-194.73 154.4,-177.48"/>
<polygon fill="#000000" stroke="black" points="156.38,-180.38 162.14,-171.49 152.09,-174.84 156.38,-180.38"/>
</g>
<!-- app_core_config&#45;&gt;app_tasks_training -->
<g id="edge26" class="edge">
<title>app_core_config&#45;&gt;app_tasks_training</title><style>.edge>path:hover{stroke-width:8}</style>
<path fill="none" stroke="black" d="M90.91,-260.42C105.38,-265 123.05,-270 139.28,-273 329.67,-308.21 386.83,-350.48 574.02,-301 678.38,-273.42 763.27,-167.2 799.11,-115.96"/>
<polygon fill="#000000" stroke="black" points="801.99,-117.96 804.76,-107.74 796.22,-114 801.99,-117.96"/>
</g>
<!-- app_core_config&#45;&gt;app_train_preprocess -->
<g id="edge27" class="edge">
<title>app_core_config&#45;&gt;app_train_preprocess</title><style>.edge>path:hover{stroke-width:8}</style>
<path fill="none" stroke="black" d="M95.88,-255.99C135.7,-262.43 202.52,-272.25 260.48,-276 292.5,-278.07 300.59,-276.49 332.67,-276 379.6,-275.28 432.85,-273.58 471.85,-272.18"/>
<polygon fill="#000000" stroke="black" points="471.84,-275.68 481.71,-271.82 471.59,-268.68 471.84,-275.68"/>
</g>
<!-- app_core_config&#45;&gt;app_train_runner -->
<g id="edge28" class="edge">
<title>app_core_config&#45;&gt;app_train_runner</title><style>.edge>path:hover{stroke-width:8}</style>
<path fill="none" stroke="black" d="M97.6,-251.69C181.29,-255.1 382.99,-260.89 447.51,-241 465.6,-235.42 483.5,-224.5 497.78,-214.09"/>
<polygon fill="#000000" stroke="black" points="499.56,-217.14 505.41,-208.31 495.33,-211.56 499.56,-217.14"/>
</g>
<!-- app_core_config&#45;&gt;app_train_lora_v2 -->
<g id="edge29" class="edge">
<title>app_core_config&#45;&gt;app_train_lora_v2</title><style>.edge>path:hover{stroke-width:8}</style>
<path fill="none" stroke="black" d="M85.51,-263.56C100.68,-271.36 120.67,-280.8 139.28,-287 229.69,-317.12 526.55,-351 527.77,-351 527.77,-351 527.77,-351 721.87,-351 846.61,-351 877.9,-351.59 1002.41,-359 1010.65,-359.49 1019.36,-360.14 1027.85,-360.86"/>
<polygon fill="#000000" stroke="black" points="1027.46,-364.34 1037.73,-361.73 1028.07,-357.36 1027.46,-364.34"/>
</g>
<!-- app_core_logger -->
<g id="node12" class="node">
<title>app_core_logger</title><style>.edge>path:hover{stroke-width:8}</style>
<ellipse fill="#db2f2f" stroke="black" cx="59.64" cy="-157" rx="37.87" ry="18"/>
<text xml:space="preserve" text-anchor="middle" x="59.64" y="-153.12" font-family="Helvetica,sans-Serif" font-size="10.00" fill="#ffffff">core.logger</text>
</g>
<!-- app_core_logger&#45;&gt;app_core -->
<g id="edge30" class="edge">
<title>app_core_logger&#45;&gt;app_core</title><style>.edge>path:hover{stroke-width:8}</style>
<path fill="none" stroke="black" d="M97.69,-157C112.18,-157 128.77,-157 143.3,-157"/>
<polygon fill="#000000" stroke="black" points="142.92,-160.5 152.92,-157 142.92,-153.5 142.92,-160.5"/>
</g>
<!-- app_core_logger&#45;&gt;app_tasks_training -->
<g id="edge31" class="edge">
<title>app_core_logger&#45;&gt;app_tasks_training</title><style>.edge>path:hover{stroke-width:8}</style>
<path fill="none" stroke="black" d="M80.88,-141.88C115.54,-116.94 189.42,-67.87 260.48,-47 323.15,-28.6 341.78,-37 407.09,-37 407.09,-37 407.09,-37 648.45,-37 691.05,-37 737.21,-52.03 770.52,-65.77"/>
<polygon fill="#000000" stroke="black" points="768.9,-68.88 779.47,-69.57 771.63,-62.44 768.9,-68.88"/>
</g>
<!-- app_core_logger&#45;&gt;app_train_evaluator -->
<g id="edge32" class="edge">
<title>app_core_logger&#45;&gt;app_train_evaluator</title><style>.edge>path:hover{stroke-width:8}</style>
<path fill="none" stroke="black" d="M89.31,-168.65C104.01,-174.16 122.35,-180.33 139.28,-184 214.13,-200.25 302.96,-206.35 357.16,-208.64"/>
<polygon fill="#000000" stroke="black" points="356.87,-212.13 367,-209.02 357.15,-205.13 356.87,-212.13"/>
</g>
<!-- app_core_logger&#45;&gt;app_train_lora_v2 -->
<g id="edge33" class="edge">
<title>app_core_logger&#45;&gt;app_train_lora_v2</title><style>.edge>path:hover{stroke-width:8}</style>
<path fill="none" stroke="black" d="M86.1,-170.36C166.19,-211.11 421,-331 646.45,-331 646.45,-331 646.45,-331 721.87,-331 846.84,-331 878.59,-333.07 1002.41,-350 1011.98,-351.31 1022.13,-353.11 1031.83,-355.03"/>
<polygon fill="#000000" stroke="black" points="1030.95,-358.42 1041.45,-357.01 1032.37,-351.57 1030.95,-358.42"/>
</g>
<!-- app_core_settings -->
<g id="node13" class="node">
<title>app_core_settings</title><style>.edge>path:hover{stroke-width:8}</style>
<ellipse fill="#ce3b3b" stroke="black" cx="59.64" cy="-67" rx="42.75" ry="18"/>
<text xml:space="preserve" text-anchor="middle" x="59.64" y="-63.12" font-family="Helvetica,sans-Serif" font-size="10.00" fill="#ffffff">core.settings</text>
</g>
<!-- app_core_settings&#45;&gt;app_core -->
<g id="edge34" class="edge">
<title>app_core_settings&#45;&gt;app_core</title><style>.edge>path:hover{stroke-width:8}</style>
<path fill="none" stroke="black" d="M81.58,-82.68C101.74,-97.77 132.32,-120.65 154.21,-137.04"/>
<polygon fill="#000000" stroke="black" points="151.98,-139.74 162.09,-142.93 156.18,-134.14 151.98,-139.74"/>
</g>
<!-- app_core_settings&#45;&gt;app_stepper_ui -->
<g id="edge35" class="edge">
<title>app_core_settings&#45;&gt;app_stepper_ui</title><style>.edge>path:hover{stroke-width:8}</style>
<path fill="none" stroke="black" d="M102.64,-68.25C143.66,-69.47 205.97,-71.33 248.61,-72.6"/>
<polygon fill="#000000" stroke="black" points="248.46,-76.1 258.56,-72.9 248.67,-69.1 248.46,-76.1"/>
</g>
<!-- app_core_settings&#45;&gt;app_tasks -->
<g id="edge36" class="edge">
<title>app_core_settings&#45;&gt;app_tasks</title><style>.edge>path:hover{stroke-width:8}</style>
<path fill="none" stroke="black" d="M93.24,-55.53C138.18,-40.77 221.97,-17 295.58,-17 295.58,-17 295.58,-17 721.87,-17 791.94,-17 873.42,-24.55 919.96,-29.59"/>
<polygon fill="#000000" stroke="black" points="919.46,-33.06 929.78,-30.68 920.23,-26.1 919.46,-33.06"/>
</g>
<!-- app_data -->
<g id="node14" class="node">
<title>app_data</title><style>.edge>path:hover{stroke-width:8}</style>
<ellipse fill="#a13535" stroke="black" cx="296.58" cy="-402" rx="27" ry="18"/>
<text xml:space="preserve" text-anchor="middle" x="296.58" y="-398.12" font-family="Helvetica,sans-Serif" font-size="10.00" fill="#ffffff">data</text>
</g>
<!-- app_data&#45;&gt;app_train_preprocess -->
<g id="edge37" class="edge">
<title>app_data&#45;&gt;app_train_preprocess</title><style>.edge>path:hover{stroke-width:8}</style>
<path fill="none" stroke="black" d="M317.6,-390.52C355.87,-368.57 439.99,-320.34 489.41,-291.99"/>
<polygon fill="#000000" stroke="black" points="490.86,-295.2 497.8,-287.19 487.38,-289.12 490.86,-295.2"/>
</g>
<!-- app_data_analysis -->
<g id="node15" class="node">
<title>app_data_analysis</title><style>.edge>path:hover{stroke-width:8}</style>
<ellipse fill="#c24747" stroke="black" cx="59.64" cy="-414" rx="43.64" ry="18"/>
<text xml:space="preserve" text-anchor="middle" x="59.64" y="-410.12" font-family="Helvetica,sans-Serif" font-size="10.00" fill="#ffffff">data.analysis</text>
</g>
<!-- app_data_analysis&#45;&gt;app_data -->
<g id="edge38" class="edge">
<title>app_data_analysis&#45;&gt;app_data</title><style>.edge>path:hover{stroke-width:8}</style>
<path fill="none" stroke="black" d="M95.77,-424.53C129.15,-433.01 180.61,-442.15 224.48,-433 238.35,-430.11 252.82,-424.36 265.06,-418.59"/>
<polygon fill="#000000" stroke="black" points="266.41,-421.83 273.82,-414.26 263.3,-415.56 266.41,-421.83"/>
</g>
<!-- app_data_versioning -->
<g id="node17" class="node">
<title>app_data_versioning</title><style>.edge>path:hover{stroke-width:8}</style>
<ellipse fill="#b34c4c" stroke="black" cx="181.88" cy="-402" rx="42.6" ry="21.57"/>
<text xml:space="preserve" text-anchor="middle" x="181.88" y="-403.75" font-family="Helvetica,sans-Serif" font-size="10.00" fill="#ffffff">data.</text>
<text xml:space="preserve" text-anchor="middle" x="181.88" y="-392.5" font-family="Helvetica,sans-Serif" font-size="10.00" fill="#ffffff">versioning</text>
</g>
<!-- app_data_analysis&#45;&gt;app_data_versioning -->
<g id="edge39" class="edge">
<title>app_data_analysis&#45;&gt;app_data_versioning</title><style>.edge>path:hover{stroke-width:8}</style>
<path fill="none" stroke="black" d="M102.35,-409.84C110.75,-409 119.67,-408.11 128.38,-407.24"/>
<polygon fill="#000000" stroke="black" points="128.53,-410.74 138.14,-406.27 127.84,-403.78 128.53,-410.74"/>
</g>
<!-- app_data_validation -->
<g id="node16" class="node">
<title>app_data_validation</title><style>.edge>path:hover{stroke-width:8}</style>
<ellipse fill="#b65353" stroke="black" cx="181.88" cy="-341" rx="40.48" ry="21.57"/>
<text xml:space="preserve" text-anchor="middle" x="181.88" y="-342.75" font-family="Helvetica,sans-Serif" font-size="10.00" fill="#ffffff">data.</text>
<text xml:space="preserve" text-anchor="middle" x="181.88" y="-331.5" font-family="Helvetica,sans-Serif" font-size="10.00" fill="#ffffff">validation</text>
</g>
<!-- app_data_validation&#45;&gt;app_data -->
<g id="edge40" class="edge">
<title>app_data_validation&#45;&gt;app_data</title><style>.edge>path:hover{stroke-width:8}</style>
<path fill="none" stroke="black" d="M211.03,-356.24C227.44,-365.12 248.15,-376.33 264.97,-385.43"/>
<polygon fill="#000000" stroke="black" points="263.07,-388.39 273.53,-390.07 266.4,-382.23 263.07,-388.39"/>
</g>
<!-- app_data_versioning&#45;&gt;app_data -->
<g id="edge41" class="edge">
<title>app_data_versioning&#45;&gt;app_data</title><style>.edge>path:hover{stroke-width:8}</style>
<path fill="none" stroke="black" d="M224.84,-402C235.66,-402 247.24,-402 257.84,-402"/>
<polygon fill="#000000" stroke="black" points="257.77,-405.5 267.77,-402 257.77,-398.5 257.77,-405.5"/>
</g>
<!-- app_db -->
<g id="node18" class="node">
<title>app_db</title><style>.edge>path:hover{stroke-width:8}</style>
<ellipse fill="#c24747" stroke="black" cx="958.78" cy="-386" rx="27" ry="18"/>
<text xml:space="preserve" text-anchor="middle" x="958.78" y="-382.12" font-family="Helvetica,sans-Serif" font-size="10.00" fill="#ffffff">db</text>
</g>
<!-- app_db&#45;&gt;app_api_routes_experiments -->
<g id="edge42" class="edge">
<title>app_db&#45;&gt;app_api_routes_experiments</title><style>.edge>path:hover{stroke-width:8}</style>
<path fill="none" stroke="black" d="M985.59,-388.88C1000.92,-390.44 1020.75,-392.22 1038.41,-393 1075.98,-394.67 1085.54,-395.93 1123.03,-393 1143.94,-391.37 1166.71,-388.17 1186.79,-384.86"/>
<polygon fill="#000000" stroke="black" points="1187.19,-388.34 1196.46,-383.21 1186.01,-381.44 1187.19,-388.34"/>
</g>
<!-- app_db&#45;&gt;app_train_lora_v2 -->
<g id="edge43" class="edge">
<title>app_db&#45;&gt;app_train_lora_v2</title><style>.edge>path:hover{stroke-width:8}</style>
<path fill="none" stroke="black" d="M985.51,-381.71C998.34,-379.57 1014.33,-376.9 1029.46,-374.38"/>
<polygon fill="#000000" stroke="black" points="1030.02,-377.84 1039.31,-372.74 1028.87,-370.93 1030.02,-377.84"/>
</g>
<!-- app_exceptions -->
<g id="node19" class="node">
<title>app_exceptions</title><style>.edge>path:hover{stroke-width:8}</style>
<ellipse fill="#c24747" stroke="black" cx="647.45" cy="-122" rx="37.42" ry="18"/>
<text xml:space="preserve" text-anchor="middle" x="647.45" y="-118.12" font-family="Helvetica,sans-Serif" font-size="10.00" fill="#ffffff">exceptions</text>
</g>
<!-- app_exceptions&#45;&gt;app_main -->
<g id="edge44" class="edge">
<title>app_exceptions&#45;&gt;app_main</title><style>.edge>path:hover{stroke-width:8}</style>
<path fill="none" stroke="black" d="M684.84,-124.67C730.68,-127.17 811.6,-128.73 879.14,-115 895.96,-111.58 898.81,-106.31 915.14,-101 1037.92,-61.1 1068,-43.58 1196.03,-27 1239.19,-21.41 1252.67,-13.24 1293.96,-27 1395.62,-60.87 1489.5,-152.31 1530.19,-196.06"/>
<polygon fill="#000000" stroke="black" points="1527.47,-198.26 1536.81,-203.27 1532.63,-193.53 1527.47,-198.26"/>
</g>
<!-- app_exceptions&#45;&gt;app_tasks_training -->
<g id="edge45" class="edge">
<title>app_exceptions&#45;&gt;app_tasks_training</title><style>.edge>path:hover{stroke-width:8}</style>
<path fill="none" stroke="black" d="M682.25,-115.2C707.32,-110.16 741.83,-103.22 769.72,-97.61"/>
<polygon fill="#000000" stroke="black" points="770.23,-101.08 779.34,-95.67 768.85,-94.22 770.23,-101.08"/>
</g>
<!-- app_monitor -->
<g id="node21" class="node">
<title>app_monitor</title><style>.edge>path:hover{stroke-width:8}</style>
<ellipse fill="#b62020" stroke="black" cx="958.78" cy="-290" rx="28.55" ry="18"/>
<text xml:space="preserve" text-anchor="middle" x="958.78" y="-286.12" font-family="Helvetica,sans-Serif" font-size="10.00" fill="#ffffff">monitor</text>
</g>
<!-- app_monitor&#45;&gt;app_api_routes_audit -->
<g id="edge46" class="edge">
<title>app_monitor&#45;&gt;app_api_routes_audit</title><style>.edge>path:hover{stroke-width:8}</style>
<path fill="none" stroke="black" d="M987.55,-290.68C1037.31,-291.91 1141.98,-294.49 1201.05,-295.94"/>
<polygon fill="#000000" stroke="black" points="1200.63,-299.43 1210.72,-296.18 1200.81,-292.44 1200.63,-299.43"/>
</g>
<!-- app_monitor&#45;&gt;app_main -->
<g id="edge47" class="edge">
<title>app_monitor&#45;&gt;app_main</title><style>.edge>path:hover{stroke-width:8}</style>
<path fill="none" stroke="black" d="M986.89,-293.89C1020.72,-299.65 1079.42,-312.75 1123.03,-339 1162.61,-362.83 1153.41,-395.18 1196.03,-413 1236.18,-429.79 1252.67,-426.76 1293.96,-413 1395.62,-379.13 1489.5,-287.69 1530.19,-243.94"/>
<polygon fill="#000000" stroke="black" points="1532.63,-246.47 1536.81,-236.73 1527.47,-241.74 1532.63,-246.47"/>
</g>
<!-- app_monitor&#45;&gt;app_train_lora_v2 -->
<g id="edge48" class="edge">
<title>app_monitor&#45;&gt;app_train_lora_v2</title><style>.edge>path:hover{stroke-width:8}</style>
<path fill="none" stroke="black" d="M979.85,-302.72C998.05,-314.25 1025.2,-331.46 1046.61,-345.02"/>
<polygon fill="#000000" stroke="black" points="1044.69,-347.94 1055.01,-350.34 1048.43,-342.03 1044.69,-347.94"/>
</g>
<!-- app_monitor_audit_utils -->
<g id="node22" class="node">
<title>app_monitor_audit_utils</title><style>.edge>path:hover{stroke-width:8}</style>
<ellipse fill="#ce3b3b" stroke="black" cx="818.5" cy="-407" rx="42.6" ry="21.57"/>
<text xml:space="preserve" text-anchor="middle" x="818.5" y="-408.75" font-family="Helvetica,sans-Serif" font-size="10.00" fill="#ffffff">monitor.</text>
<text xml:space="preserve" text-anchor="middle" x="818.5" y="-397.5" font-family="Helvetica,sans-Serif" font-size="10.00" fill="#ffffff">audit_utils</text>
</g>
<!-- app_monitor_audit_utils&#45;&gt;app_api_routes_audit -->
<g id="edge49" class="edge">
<title>app_monitor_audit_utils&#45;&gt;app_api_routes_audit</title><style>.edge>path:hover{stroke-width:8}</style>
<path fill="none" stroke="black" d="M858.93,-413.93C918.89,-422.6 1035.28,-431.96 1123.03,-393 1160.9,-376.18 1163.56,-360.75 1196.03,-335 1200.92,-331.12 1206.09,-327.02 1211.15,-323.01"/>
<polygon fill="#000000" stroke="black" points="1213.23,-325.83 1218.89,-316.88 1208.88,-320.34 1213.23,-325.83"/>
</g>
<!-- app_monitor_audit_utils&#45;&gt;app_main -->
<g id="edge50" class="edge">
<title>app_monitor_audit_utils&#45;&gt;app_main</title><style>.edge>path:hover{stroke-width:8}</style>
<path fill="none" stroke="black" d="M858.07,-415.71C908.67,-426.37 1000.36,-443 1079.72,-443 1079.72,-443 1079.72,-443 1365.72,-443 1465.84,-443 1522.45,-308.66 1542.78,-248.52"/>
<polygon fill="#000000" stroke="black" points="1546.01,-249.9 1545.79,-239.31 1539.35,-247.73 1546.01,-249.9"/>
</g>
<!-- app_monitor_audit_utils&#45;&gt;app_monitor -->
<g id="edge51" class="edge">
<title>app_monitor_audit_utils&#45;&gt;app_monitor</title><style>.edge>path:hover{stroke-width:8}</style>
<path fill="none" stroke="black" d="M841.41,-388.46C866.07,-367.6 906.09,-333.74 932.17,-311.67"/>
<polygon fill="#000000" stroke="black" points="934.24,-314.5 939.61,-305.37 929.71,-309.16 934.24,-314.5"/>
</g>
<!-- app_monitor_logging_utils -->
<g id="node23" class="node">
<title>app_monitor_logging_utils</title><style>.edge>path:hover{stroke-width:8}</style>
<ellipse fill="#b65353" stroke="black" cx="818.5" cy="-229" rx="49.5" ry="21.57"/>
<text xml:space="preserve" text-anchor="middle" x="818.5" y="-230.75" font-family="Helvetica,sans-Serif" font-size="10.00" fill="#ffffff">monitor.</text>
<text xml:space="preserve" text-anchor="middle" x="818.5" y="-219.5" font-family="Helvetica,sans-Serif" font-size="10.00" fill="#ffffff">logging_utils</text>
</g>
<!-- app_monitor_logging_utils&#45;&gt;app_monitor -->
<g id="edge52" class="edge">
<title>app_monitor_logging_utils&#45;&gt;app_monitor</title><style>.edge>path:hover{stroke-width:8}</style>
<path fill="none" stroke="black" d="M854.04,-244.24C875.56,-253.73 903.12,-265.89 924.42,-275.28"/>
<polygon fill="#000000" stroke="black" points="922.98,-278.47 933.54,-279.31 925.8,-272.07 922.98,-278.47"/>
</g>
<!-- app_monitor_system_metrics -->
<g id="node24" class="node">
<title>app_monitor_system_metrics</title><style>.edge>path:hover{stroke-width:8}</style>
<ellipse fill="#b65353" stroke="black" cx="818.5" cy="-290" rx="60.63" ry="21.57"/>
<text xml:space="preserve" text-anchor="middle" x="818.5" y="-291.75" font-family="Helvetica,sans-Serif" font-size="10.00" fill="#ffffff">monitor.</text>
<text xml:space="preserve" text-anchor="middle" x="818.5" y="-280.5" font-family="Helvetica,sans-Serif" font-size="10.00" fill="#ffffff">system_metrics</text>
</g>
<!-- app_monitor_system_metrics&#45;&gt;app_monitor -->
<g id="edge53" class="edge">
<title>app_monitor_system_metrics&#45;&gt;app_monitor</title><style>.edge>path:hover{stroke-width:8}</style>
<path fill="none" stroke="black" d="M879.35,-290C892.73,-290 906.59,-290 918.87,-290"/>
<polygon fill="#000000" stroke="black" points="918.57,-293.5 928.57,-290 918.57,-286.5 918.57,-293.5"/>
</g>
<!-- app_tasks&#45;&gt;app_api_routes_train -->
<g id="edge54" class="edge">
<title>app_tasks&#45;&gt;app_api_routes_train</title><style>.edge>path:hover{stroke-width:8}</style>
<path fill="none" stroke="black" d="M986.26,-36.98C1035.48,-42.52 1141.46,-54.46 1201.05,-61.17"/>
<polygon fill="#000000" stroke="black" points="1200.49,-64.62 1210.82,-62.26 1201.27,-57.67 1200.49,-64.62"/>
</g>
<!-- app_tasks_training&#45;&gt;app_api_routes_train -->
<g id="edge55" class="edge">
<title>app_tasks_training&#45;&gt;app_api_routes_train</title><style>.edge>path:hover{stroke-width:8}</style>
<path fill="none" stroke="black" d="M856.06,-86.11C934.16,-82.06 1116.94,-72.58 1200.69,-68.24"/>
<polygon fill="#000000" stroke="black" points="1200.75,-71.75 1210.56,-67.73 1200.39,-64.76 1200.75,-71.75"/>
</g>
<!-- app_tasks_training&#45;&gt;app_tasks -->
<g id="edge56" class="edge">
<title>app_tasks_training&#45;&gt;app_tasks</title><style>.edge>path:hover{stroke-width:8}</style>
<path fill="none" stroke="black" d="M856.2,-73.67C876.18,-65.87 900.84,-56.24 920.85,-48.42"/>
<polygon fill="#000000" stroke="black" points="921.99,-51.73 930.03,-44.84 919.44,-45.21 921.99,-51.73"/>
</g>
<!-- app_train -->
<g id="node28" class="node">
<title>app_train</title><style>.edge>path:hover{stroke-width:8}</style>
<polygon fill="blue" stroke="black" points="674.45,-229 620.45,-229 620.45,-193 674.45,-193 674.45,-229"/>
<text xml:space="preserve" text-anchor="middle" x="647.45" y="-207.12" font-family="Helvetica,sans-Serif" font-size="10.00" fill="white">train</text>
</g>
<!-- app_train&#45;&gt;app_tasks_training -->
<g id="edge57" class="edge">
<title>app_train&#45;&gt;app_tasks_training</title><style>.edge>path:hover{stroke-width:8}</style>
<path fill="none" stroke="black" d="M673.76,-192.59C702.85,-171.42 750.74,-136.57 783.18,-112.97"/>
<polygon fill="#000000" stroke="black" points="785.05,-115.94 791.07,-107.23 780.93,-110.28 785.05,-115.94"/>
</g>
<!-- app_train&#45;&gt;app_train_lora_v2 -->
<g id="edge58" class="edge">
<title>app_train&#45;&gt;app_train_lora_v2</title><style>.edge>path:hover{stroke-width:8}</style>
<path fill="none" stroke="black" d="M674.83,-203.47C718.53,-192.31 808.15,-175.04 879.14,-198 897.92,-204.07 898.04,-214.14 915.14,-224 951.95,-245.22 969.21,-236.5 1002.41,-263 1028.63,-283.92 1050.67,-315.7 1064.42,-338.42"/>
<polygon fill="#000000" stroke="black" points="1061.29,-340 1069.38,-346.84 1067.33,-336.45 1061.29,-340"/>
</g>
<!-- app_train_evaluator&#45;&gt;app_train -->
<g id="edge59" class="edge">
<title>app_train_evaluator&#45;&gt;app_train</title><style>.edge>path:hover{stroke-width:8}</style>
<path fill="none" stroke="black" d="M447.3,-213.67C458.91,-214.63 471.72,-215.53 483.51,-216 523.7,-217.62 533.82,-217.39 574.02,-216 585.33,-215.61 597.62,-214.88 608.81,-214.09"/>
<polygon fill="#000000" stroke="black" points="608.76,-217.61 618.47,-213.38 608.24,-210.63 608.76,-217.61"/>
</g>
<!-- app_train_evaluator&#45;&gt;app_train_runner -->
<g id="edge60" class="edge">
<title>app_train_evaluator&#45;&gt;app_train_runner</title><style>.edge>path:hover{stroke-width:8}</style>
<path fill="none" stroke="black" d="M445.99,-203.47C458.28,-201.3 472.08,-198.85 484.8,-196.6"/>
<polygon fill="#000000" stroke="black" points="485.37,-200.06 494.6,-194.87 484.15,-193.16 485.37,-200.06"/>
</g>
<!-- app_train_preprocess&#45;&gt;app_train -->
<g id="edge61" class="edge">
<title>app_train_preprocess&#45;&gt;app_train</title><style>.edge>path:hover{stroke-width:8}</style>
<path fill="none" stroke="black" d="M560.73,-254.34C575.9,-246.67 594.27,-237.38 610.11,-229.37"/>
<polygon fill="#000000" stroke="black" points="611.4,-232.65 618.74,-225.01 608.24,-226.4 611.4,-232.65"/>
</g>
<!-- app_train_runner&#45;&gt;app_train -->
<g id="edge62" class="edge">
<title>app_train_runner&#45;&gt;app_train</title><style>.edge>path:hover{stroke-width:8}</style>
<path fill="none" stroke="black" d="M561.34,-194.95C575.97,-197.71 593.46,-201.01 608.78,-203.9"/>
<polygon fill="#000000" stroke="black" points="608.02,-207.32 618.49,-205.73 609.31,-200.44 608.02,-207.32"/>
</g>
</g>
</svg>
